<svg width="101" height="101" viewBox="0 0 101 101" fill="none" xmlns="http://www.w3.org/2000/svg">
<path d="M93.3571 0.5H7.62054C3.69196 0.5 0.5 3.73661 0.5 7.70982V93.2902C0.5 97.2634 3.69196 100.5 7.62054 100.5H93.3571C97.2857 100.5 100.5 97.2634 100.5 93.2902V7.70982C100.5 3.73661 97.2857 0.5 93.3571 0.5ZM30.7232 86.2143H15.9018V38.4911H30.7455V86.2143H30.7232ZM23.3125 31.9732C18.558 31.9732 14.7188 28.1116 14.7188 23.3795C14.7188 18.6473 18.558 14.7857 23.3125 14.7857C28.0446 14.7857 31.9062 18.6473 31.9062 23.3795C31.9062 28.1339 28.067 31.9732 23.3125 31.9732ZM86.2812 86.2143H71.4598V63C71.4598 57.4643 71.3482 50.3438 63.7589 50.3438C56.0357 50.3438 54.8527 56.3705 54.8527 62.5982V86.2143H40.0312V38.4911H54.25V45.0089H54.4509C56.4375 41.2589 61.2813 37.308 68.4911 37.308C83.4911 37.308 86.2812 47.1964 86.2812 60.0536V86.2143Z" fill="white"/>
</svg>
