<svg width="100" height="100" viewBox="0 0 100 100" fill="none" xmlns="http://www.w3.org/2000/svg">
<path d="M89.7211 24.9218C89.7845 26.0155 89.7845 27.1094 89.7845 28.2031C89.7845 61.5623 69.1628 100 31.4722 100C19.8604 100 9.07367 95.8592 0 88.672C1.64981 88.9062 3.23595 88.9844 4.94924 88.9844C14.5303 88.9844 23.3503 85.0001 30.3935 78.2032C21.3833 77.9688 13.8325 70.7032 11.2309 60.7031C12.5 60.9373 13.769 61.0936 15.1016 61.0936C16.9417 61.0936 18.7819 60.781 20.495 60.2344C11.1041 57.8905 4.06076 47.7343 4.06076 35.4687V35.1563C6.78909 37.0313 9.96195 38.2032 13.3247 38.3593C7.80433 33.8279 4.18771 26.0936 4.18771 17.3436C4.18771 12.6562 5.20276 8.35929 6.97952 4.60926C17.0684 19.9217 32.2335 29.9216 49.2385 31.0155C48.9213 29.1405 48.7309 27.1876 48.7309 25.2344C48.7309 11.328 57.868 0 69.2259 0C75.1269 0 80.4568 3.04687 84.2005 7.96875C88.8324 6.87505 93.274 4.76557 97.2082 1.87501C95.6851 7.73452 92.4492 12.6564 88.198 15.7812C92.3224 15.2346 96.3199 13.828 100 11.8751C97.2086 16.8749 93.7185 21.3278 89.7211 24.9218Z" fill="white"/>
</svg>
